<mxfile host="app.diagrams.net" modified="2023-04-17T11:36:17.176Z" agent="Mozilla/5.0 (Windows NT 10.0; Win64; x64) AppleWebKit/537.36 (KHTML, like Gecko) Chrome/112.0.0.0 Safari/537.36" etag="o28QWq3WGRUup0JIqS7g" version="21.1.7" type="github">
  <diagram name="PÃ¡gina-1" id="TGj9vNtR49UY1jZGek7W">
    <mxGraphModel dx="792" dy="1138" grid="1" gridSize="10" guides="1" tooltips="1" connect="1" arrows="1" fold="1" page="1" pageScale="1" pageWidth="827" pageHeight="1169" math="0" shadow="0">
      <root>
        <mxCell id="0" />
        <mxCell id="1" parent="0" />
        <mxCell id="oH-taMQUgR4NYFWCJOiB-6" value="Play" style="shape=rhombus;perimeter=rhombusPerimeter;whiteSpace=wrap;html=1;align=center;fillColor=#f8cecc;strokeColor=#b85450;" vertex="1" parent="1">
          <mxGeometry x="250" y="70" width="120" height="60" as="geometry" />
        </mxCell>
        <mxCell id="oH-taMQUgR4NYFWCJOiB-7" value="User" style="whiteSpace=wrap;html=1;align=center;fillColor=#fff2cc;strokeColor=#d6b656;" vertex="1" parent="1">
          <mxGeometry x="80" y="80" width="100" height="40" as="geometry" />
        </mxCell>
        <mxCell id="oH-taMQUgR4NYFWCJOiB-8" value="Match" style="whiteSpace=wrap;html=1;align=center;fillColor=#fff2cc;strokeColor=#d6b656;" vertex="1" parent="1">
          <mxGeometry x="440" y="80" width="100" height="40" as="geometry" />
        </mxCell>
        <mxCell id="oH-taMQUgR4NYFWCJOiB-9" value="User" style="whiteSpace=wrap;html=1;align=center;fillColor=#fff2cc;strokeColor=#d6b656;" vertex="1" parent="1">
          <mxGeometry x="80" y="200" width="100" height="40" as="geometry" />
        </mxCell>
        <mxCell id="oH-taMQUgR4NYFWCJOiB-10" value="Have" style="shape=rhombus;perimeter=rhombusPerimeter;whiteSpace=wrap;html=1;align=center;fillColor=#f8cecc;strokeColor=#b85450;" vertex="1" parent="1">
          <mxGeometry x="250" y="190" width="120" height="60" as="geometry" />
        </mxCell>
        <mxCell id="oH-taMQUgR4NYFWCJOiB-12" value="Friends" style="whiteSpace=wrap;html=1;align=center;fillColor=#fff2cc;strokeColor=#d6b656;" vertex="1" parent="1">
          <mxGeometry x="440" y="200" width="100" height="40" as="geometry" />
        </mxCell>
        <mxCell id="oH-taMQUgR4NYFWCJOiB-13" value="User" style="whiteSpace=wrap;html=1;align=center;fillColor=#fff2cc;strokeColor=#d6b656;" vertex="1" parent="1">
          <mxGeometry x="80" y="320" width="100" height="40" as="geometry" />
        </mxCell>
        <mxCell id="oH-taMQUgR4NYFWCJOiB-14" value="Buy" style="shape=rhombus;perimeter=rhombusPerimeter;whiteSpace=wrap;html=1;align=center;fillColor=#f8cecc;strokeColor=#b85450;" vertex="1" parent="1">
          <mxGeometry x="250" y="310" width="120" height="60" as="geometry" />
        </mxCell>
        <mxCell id="oH-taMQUgR4NYFWCJOiB-15" value="Virtual Coins" style="whiteSpace=wrap;html=1;align=center;fillColor=#fff2cc;strokeColor=#d6b656;" vertex="1" parent="1">
          <mxGeometry x="440" y="320" width="100" height="40" as="geometry" />
        </mxCell>
        <mxCell id="oH-taMQUgR4NYFWCJOiB-16" value="User" style="whiteSpace=wrap;html=1;align=center;fillColor=#fff2cc;strokeColor=#d6b656;" vertex="1" parent="1">
          <mxGeometry x="80" y="440" width="100" height="40" as="geometry" />
        </mxCell>
        <mxCell id="oH-taMQUgR4NYFWCJOiB-17" value="Buy" style="shape=rhombus;perimeter=rhombusPerimeter;whiteSpace=wrap;html=1;align=center;fillColor=#f8cecc;strokeColor=#b85450;" vertex="1" parent="1">
          <mxGeometry x="250" y="430" width="120" height="60" as="geometry" />
        </mxCell>
        <mxCell id="oH-taMQUgR4NYFWCJOiB-18" value="Diamonds" style="whiteSpace=wrap;html=1;align=center;fillColor=#fff2cc;strokeColor=#d6b656;" vertex="1" parent="1">
          <mxGeometry x="440" y="440" width="100" height="40" as="geometry" />
        </mxCell>
        <mxCell id="oH-taMQUgR4NYFWCJOiB-19" value="User" style="whiteSpace=wrap;html=1;align=center;fillColor=#fff2cc;strokeColor=#d6b656;" vertex="1" parent="1">
          <mxGeometry x="80" y="560" width="100" height="40" as="geometry" />
        </mxCell>
        <mxCell id="oH-taMQUgR4NYFWCJOiB-20" value="Consult" style="shape=rhombus;perimeter=rhombusPerimeter;whiteSpace=wrap;html=1;align=center;fillColor=#f8cecc;strokeColor=#b85450;" vertex="1" parent="1">
          <mxGeometry x="250" y="550" width="120" height="60" as="geometry" />
        </mxCell>
        <mxCell id="oH-taMQUgR4NYFWCJOiB-21" value="Players stats" style="whiteSpace=wrap;html=1;align=center;fillColor=#fff2cc;strokeColor=#d6b656;" vertex="1" parent="1">
          <mxGeometry x="440" y="560" width="100" height="40" as="geometry" />
        </mxCell>
      </root>
    </mxGraphModel>
  </diagram>
</mxfile>
